<mxfile host="app.diagrams.net" modified="2024-07-06T03:32:30.892Z" agent="Mozilla/5.0 (Macintosh; Intel Mac OS X 10_15_7) AppleWebKit/537.36 (KHTML, like Gecko) Chrome/126.0.0.0 Safari/537.36" etag="gb2t2nD4y6I2tfI9h_us" version="24.6.4" type="github">
  <diagram name="Page-1" id="a00jU9ghZJPKTWL7Q-sj">
    <mxGraphModel dx="984" dy="734" grid="1" gridSize="10" guides="1" tooltips="1" connect="1" arrows="1" fold="1" page="1" pageScale="1" pageWidth="850" pageHeight="1100" math="0" shadow="0">
      <root>
        <mxCell id="0" />
        <mxCell id="1" parent="0" />
        <mxCell id="fJ6ILoFUyrYYFlW6BB1n-3" style="edgeStyle=orthogonalEdgeStyle;rounded=0;orthogonalLoop=1;jettySize=auto;html=1;exitX=0.5;exitY=1;exitDx=0;exitDy=0;exitPerimeter=0;" edge="1" parent="1" source="fJ6ILoFUyrYYFlW6BB1n-1" target="fJ6ILoFUyrYYFlW6BB1n-2">
          <mxGeometry relative="1" as="geometry" />
        </mxCell>
        <mxCell id="fJ6ILoFUyrYYFlW6BB1n-4" value="File Path" style="edgeLabel;html=1;align=center;verticalAlign=middle;resizable=0;points=[];" vertex="1" connectable="0" parent="fJ6ILoFUyrYYFlW6BB1n-3">
          <mxGeometry x="0.0167" y="1" relative="1" as="geometry">
            <mxPoint as="offset" />
          </mxGeometry>
        </mxCell>
        <mxCell id="fJ6ILoFUyrYYFlW6BB1n-13" style="edgeStyle=orthogonalEdgeStyle;rounded=0;orthogonalLoop=1;jettySize=auto;html=1;exitX=0;exitY=0.5;exitDx=0;exitDy=0;exitPerimeter=0;" edge="1" parent="1" source="fJ6ILoFUyrYYFlW6BB1n-1">
          <mxGeometry relative="1" as="geometry">
            <mxPoint x="530" y="270" as="targetPoint" />
          </mxGeometry>
        </mxCell>
        <mxCell id="fJ6ILoFUyrYYFlW6BB1n-1" value="Meta data DB" style="shape=cylinder3;whiteSpace=wrap;html=1;boundedLbl=1;backgroundOutline=1;size=15;" vertex="1" parent="1">
          <mxGeometry x="590" y="180" width="130" height="130" as="geometry" />
        </mxCell>
        <mxCell id="fJ6ILoFUyrYYFlW6BB1n-2" value="Object Storage" style="strokeWidth=2;html=1;shape=mxgraph.flowchart.terminator;whiteSpace=wrap;" vertex="1" parent="1">
          <mxGeometry x="590" y="430" width="130" height="60" as="geometry" />
        </mxCell>
        <mxCell id="fJ6ILoFUyrYYFlW6BB1n-5" value="App Server" style="verticalLabelPosition=bottom;verticalAlign=top;html=1;shape=mxgraph.basic.patternFillRect;fillStyle=diagRev;step=5;fillStrokeWidth=0.2;fillStrokeColor=#dddddd;" vertex="1" parent="1">
          <mxGeometry x="150" y="120" width="210" height="110" as="geometry" />
        </mxCell>
        <mxCell id="fJ6ILoFUyrYYFlW6BB1n-6" value="App Server (write/upload)" style="verticalLabelPosition=bottom;verticalAlign=top;html=1;shape=mxgraph.basic.patternFillRect;fillStyle=diagRev;step=5;fillStrokeWidth=0.2;fillStrokeColor=#dddddd;" vertex="1" parent="1">
          <mxGeometry x="150" y="320" width="210" height="110" as="geometry" />
        </mxCell>
        <mxCell id="fJ6ILoFUyrYYFlW6BB1n-8" value="Cache" style="strokeWidth=2;html=1;shape=mxgraph.flowchart.terminator;whiteSpace=wrap;" vertex="1" parent="1">
          <mxGeometry x="410" y="230" width="115" height="70" as="geometry" />
        </mxCell>
        <mxCell id="fJ6ILoFUyrYYFlW6BB1n-11" style="edgeStyle=orthogonalEdgeStyle;rounded=0;orthogonalLoop=1;jettySize=auto;html=1;exitX=1;exitY=0.5;exitDx=0;exitDy=0;exitPerimeter=0;entryX=0;entryY=0.5;entryDx=0;entryDy=0;entryPerimeter=0;" edge="1" parent="1" source="fJ6ILoFUyrYYFlW6BB1n-5" target="fJ6ILoFUyrYYFlW6BB1n-8">
          <mxGeometry relative="1" as="geometry" />
        </mxCell>
        <mxCell id="fJ6ILoFUyrYYFlW6BB1n-12" value="Read" style="edgeLabel;html=1;align=center;verticalAlign=middle;resizable=0;points=[];" vertex="1" connectable="0" parent="fJ6ILoFUyrYYFlW6BB1n-11">
          <mxGeometry x="-0.0857" y="1" relative="1" as="geometry">
            <mxPoint as="offset" />
          </mxGeometry>
        </mxCell>
        <mxCell id="fJ6ILoFUyrYYFlW6BB1n-15" value="Write" style="edgeStyle=orthogonalEdgeStyle;rounded=0;orthogonalLoop=1;jettySize=auto;html=1;exitX=1;exitY=0.5;exitDx=0;exitDy=0;exitPerimeter=0;entryX=0.1;entryY=0.969;entryDx=0;entryDy=0;entryPerimeter=0;" edge="1" parent="1" source="fJ6ILoFUyrYYFlW6BB1n-6" target="fJ6ILoFUyrYYFlW6BB1n-1">
          <mxGeometry relative="1" as="geometry" />
        </mxCell>
      </root>
    </mxGraphModel>
  </diagram>
</mxfile>
